<svg xmlns="http://www.w3.org/2000/svg" viewBox="0 0 581 156" width="581" height="156">
  <path d="M40 126.6000L35.8000 105.6000Q53.0800 105.4800 64.8400 103.5600Q76.6000 101.6400 83.6800 97.3800Q90.7600 93.1200 93.8800 86.1600Q97 79.2000 97 69L97 69L97 58.8000L42.4000 58.8000L42.4000 84.6000L19.6000 84.6000L19.6000 39L58 39L58 22.2000L80.8000 22.2000L80.8000 39L120.4000 39L120.4000 69Q120.4000 88.5600 111.9400 101.1600Q103.4800 113.7600 85.7200 119.9400Q67.9600 126.1200 40 126.6000L40 126.6000Z M220.3200 122.8800L139.6800 122.8800L139.6800 104.1600L169.2000 104.1600L169.2000 68.6400L141.6000 68.6400L141.6000 49.9200L218.4000 49.9200L218.4000 68.6400L190.8000 68.6400L190.8000 104.1600L220.3200 104.1600L220.3200 122.8800Z M239.6000 89.4000L236 68.4000Q247.8800 66.6000 260.9000 62.2800Q273.9200 57.9600 286.7000 51.7800Q299.4800 45.6000 310.7000 38.1600Q321.9200 30.7200 330.2000 22.8000L330.2000 22.8000L344 39.6000Q336.6800 46.5600 327.1400 53.1000Q317.6000 59.6400 306.7400 65.5200Q295.8800 71.4000 284.4200 76.2000Q272.9600 81 261.5600 84.3600Q250.1600 87.7200 239.6000 89.4000L239.6000 89.4000ZM306.8000 129.6000L282.2000 129.6000L282.2000 60.6000L306.8000 60.6000L306.8000 129.6000Z M355.6000 132L355.6000 132L344.2000 113.4000Q355.6000 106.5600 363.9400 98.6400Q372.2800 90.7200 377.7400 81.4200Q383.2000 72.1200 385.9000 61.1400Q388.6000 50.1600 388.6000 37.2000L388.6000 37.2000L388.6000 20.4000L411.4000 20.4000L411.4000 38.4000Q411.4000 49.3200 408.5800 60.5400Q405.7600 71.7600 400.7200 82.3800Q395.6800 93 388.6600 102.4200Q381.6400 111.8400 373.3000 119.4000Q364.9600 126.9600 355.6000 132ZM414.4000 123.6000L397 132.6000Q393.6400 126.8400 389.6800 120.7200Q385.7200 114.6000 381.4000 108L381.4000 108L398.8000 99Q403.3600 105.8400 407.2000 111.8400Q411.0400 117.8400 414.4000 123.6000L414.4000 123.6000ZM455.8000 113.4000L444.4000 132Q435.5200 127.0800 427.5400 119.4600Q419.5600 111.8400 412.9000 102.4200Q406.2400 93 401.3200 82.3200Q396.4000 71.6400 393.7000 60.4800Q391 49.3200 391 38.4000L391 38.4000L411.4000 37.2000Q411.4000 49.9200 413.9800 60.8400Q416.5600 71.7600 421.9600 81.0600Q427.3600 90.3600 435.7600 98.4000Q444.1600 106.4400 455.8000 113.4000L455.8000 113.4000ZM452.8000 61.2000L347.2000 61.2000L347.2000 42L452.8000 42L452.8000 61.2000Z M520.0800 91.2000L498.4800 91.2000L494.8800 32.4000L523.6800 32.4000L520.0800 91.2000ZM521.2800 120L497.2800 120L497.2800 99.6000L521.2800 99.6000L521.2800 120Z" fill="#3b82f6" />
</svg>